<svg width="221" height="66" viewBox="0 0 221 66" fill="none" xmlns="http://www.w3.org/2000/svg">
<path d="M80.8558 30.034C80.1458 28.309 79.1008 26.825 77.7218 25.58C75.2028 23.307 72.2428 22.251 68.8448 22.415C65.4568 22.589 62.6208 23.941 60.3378 26.472C58.0648 28.991 57.0088 31.951 57.1728 35.349C57.3578 38.747 58.7098 41.583 61.2298 43.857C62.6518 45.14 64.2848 46.059 66.1388 46.573C72.3098 48.284 77.5588 45.658 80.1748 44.186L79.2608 39.926C77.5598 40.934 70.7348 43.558 65.9988 41.422C64.4148 40.707 63.4118 39.343 62.8658 37.589L78.7948 37.688C79.5638 37.732 80.2328 37.547 80.8008 37.135C81.4008 36.711 81.7238 36.145 81.7698 35.438C81.8708 33.581 81.5658 31.779 80.8558 30.034ZM62.5688 33.038C62.6008 31.452 63.3448 30.093 64.7988 28.962C66.1038 27.952 67.5198 27.408 69.0498 27.33C70.6818 27.247 72.2798 27.714 73.8438 28.731C75.6338 29.893 76.5258 31.348 76.5228 33.099L62.5688 33.038Z" fill="#EA2C2D"/>
<path d="M95.0771 46.9028C93.2041 47.3708 91.3761 47.1658 89.5921 46.2878C87.8071 45.4098 86.3741 43.9988 85.2911 42.0528C84.1201 39.9768 83.5361 37.5708 83.5361 34.8348V22.9648H88.8901V34.8348C88.8901 38.4768 89.9071 40.8468 91.9401 41.9448C92.8611 42.4418 93.8631 42.5298 94.9451 42.2078C96.0871 41.8568 97.1911 41.0738 98.2581 39.8598C97.6291 38.2798 97.3151 36.5838 97.3151 34.7688V22.9648H102.669V34.7688C102.64 36.3348 102.962 37.7608 103.635 39.0478C104.264 40.2618 105.09 41.1528 106.114 41.7248C107.181 42.2948 108.264 42.4128 109.361 42.0768C110.56 41.6958 111.621 40.7968 112.543 39.3768V22.9648H117.896V40.1458C117.896 40.7008 117.743 41.2068 117.436 41.6598C115.344 45.1118 112.506 46.9188 108.922 47.0788C105.543 47.2248 102.683 45.9528 100.342 43.2608C98.8211 45.1908 97.0661 46.4058 95.0771 46.9028Z" fill="#EA2C2D"/>
<path d="M139.246 22.9635H144.622V46.5725H139.246V44.8405C137.301 46.3175 135.149 47.0565 132.796 47.0565C129.797 47.0565 127.223 45.9665 125.072 43.7865C122.775 41.4465 121.627 38.4405 121.627 34.7675C121.627 31.1115 122.769 28.1125 125.05 25.7715C127.199 23.5775 129.775 22.4805 132.774 22.4805C135.128 22.4805 137.286 23.2195 139.247 24.6955L139.246 22.9635ZM139.246 29.8975C137.944 28.3465 136.291 27.5645 134.287 27.5495C132.386 27.5345 130.711 28.1855 129.263 29.5025C127.742 30.9065 126.982 32.6615 126.982 34.7675C126.982 36.8595 127.742 38.6075 129.263 40.0115C130.697 41.3435 132.364 42.0005 134.266 41.9865C136.269 41.9865 137.93 41.2055 139.246 39.6385V29.8975Z" fill="#EA2C2D"/>
<path d="M183.832 12.3203H189.207V46.5713H183.832V44.8393C181.886 46.3163 179.735 47.0553 177.381 47.0553C174.382 47.0553 171.808 45.9653 169.657 43.7853C167.36 41.4453 166.213 38.4393 166.213 34.7663C166.213 31.1103 167.354 28.1113 169.636 25.7703C171.785 23.5763 174.36 22.4793 177.36 22.4793C179.714 22.4793 181.872 23.2183 183.833 24.6943V12.3203H183.832ZM183.832 29.8963C182.529 28.3453 180.876 27.5633 178.873 27.5483C176.971 27.5333 175.296 28.1843 173.848 29.5013C172.327 30.9053 171.567 32.6603 171.567 34.7663C171.567 36.8583 172.327 38.6063 173.848 40.0103C175.282 41.3423 176.95 41.9993 178.851 41.9853C180.855 41.9853 182.515 41.2043 183.832 39.6373V29.8963Z" fill="#EA2C2D"/>
<path d="M193.376 27.8798V22.9648H210.293C211.434 22.9648 212.245 23.4908 212.729 24.5448C213.197 25.5838 213.058 26.5348 212.312 27.3978L200.178 41.6378H212.97V46.5748H195.307C194.722 46.5748 194.189 46.3988 193.705 46.0488C193.119 45.5948 192.768 45.0108 192.651 44.2938C192.549 43.5628 192.717 42.8978 193.156 42.2968L205.422 27.8808H193.376V27.8798Z" fill="#EA2C2D"/>
<path d="M47.456 34.9571C49.179 34.3571 50.649 33.4481 51.867 32.2301C54.475 29.6221 55.78 26.4681 55.78 22.7691C55.78 19.0701 54.475 15.9091 51.867 13.2841C49.242 10.6751 46.081 9.37109 42.383 9.37109C38.684 9.37109 35.53 10.6751 32.922 13.2841C30.297 15.9091 28.985 19.0701 28.985 22.7691V26.9251H29.076H34.771H34.794V22.1891C34.911 19.9651 35.695 18.1711 37.165 16.8171C38.588 15.5051 40.327 14.8481 42.382 14.8481C44.437 14.8481 46.184 15.5051 47.622 16.8171C49.203 18.2871 49.993 20.2711 49.993 22.7691C49.993 24.8711 49.25 26.6661 47.764 28.1511C46.278 29.6221 44.483 30.3571 42.382 30.3571L34.77 30.3381H28.984V30.3551H23.104C23.104 30.3551 19.042 30.4531 16.322 31.1621C14.599 31.7621 13.13 32.6711 11.912 33.8881C9.304 36.4971 8 39.6501 8 43.3481C8 47.0481 9.304 50.2091 11.912 52.8331C14.536 55.4411 17.698 56.7461 21.396 56.7461C25.096 56.7461 28.249 55.4411 30.857 52.8331C33.482 50.2091 34.793 47.0481 34.793 43.3481V39.1301H34.77H29.008H28.984V43.9291C28.868 46.1531 28.083 47.9481 26.613 49.3011C25.191 50.6131 23.451 51.2691 21.396 51.2691C19.341 51.2691 17.595 50.6131 16.156 49.3011C14.575 47.8301 13.785 45.8471 13.785 43.3481C13.785 41.2461 14.528 39.4521 16.014 37.9661C17.5 36.4961 19.294 35.7611 21.396 35.7611L36.859 35.7631H40.674L49.708 46.9311H57.13L47.456 34.9571Z" fill="#EA2C2D"/>
<path d="M166.928 24.469C165.246 23.053 163.492 22.473 161.34 22.459C158.78 22.459 156.455 23.505 154.363 25.597V22.964H149.009V46.573H154.363V30.249C154.919 29.562 155.57 29.014 156.315 28.604C157.266 28.077 158.291 27.814 159.387 27.814C161.074 27.814 162.525 28.4 163.748 29.556C164.287 28.16 165.115 26.19 166.928 24.469Z" fill="#EA2C2D"/>
</svg>
